<?xml version="1.0" encoding="utf-8" standalone="no"?>
<!DOCTYPE svg PUBLIC "-//W3C//DTD SVG 1.1//EN"
  "http://www.w3.org/Graphics/SVG/1.1/DTD/svg11.dtd">
<!-- Created with matplotlib (https://matplotlib.org/) -->
<svg height="288pt" version="1.1" viewBox="0 0 432 288" width="432pt" xmlns="http://www.w3.org/2000/svg" xmlns:xlink="http://www.w3.org/1999/xlink">
 <defs>
  <style type="text/css">
*{stroke-linecap:butt;stroke-linejoin:round;}
  </style>
 </defs>
 <g id="figure_1">
  <g id="patch_1">
   <path d="M 0 288 
L 432 288 
L 432 0 
L 0 0 
z
" style="fill:#ffffff;"/>
  </g>
  <g id="axes_1">
   <g id="patch_2">
    <path d="M 54 252 
L 388.8 252 
L 388.8 34.56 
L 54 34.56 
z
" style="fill:#ffffff;"/>
   </g>
   <g id="PolyCollection_1">
    <defs>
     <path d="M 81.957188 -45.883636 
L 81.842812 -45.883636 
L 81.655445 -47.800522 
L 81.479208 -49.717407 
L 81.608674 -51.634292 
L 81.818846 -53.551177 
L 81.890904 -55.468063 
L 81.89959 -57.384948 
L 81.899993 -59.301833 
L 81.9 -61.218719 
L 81.9 -63.135604 
L 81.9 -65.052489 
L 81.9 -66.969374 
L 81.9 -68.88626 
L 81.9 -70.803145 
L 81.9 -72.72003 
L 81.9 -74.636916 
L 81.899999 -76.553801 
L 81.899956 -78.470686 
L 81.898517 -80.387571 
L 81.879982 -82.304457 
L 81.791285 -84.221342 
L 81.662435 -86.138227 
L 81.691121 -88.055113 
L 81.826101 -89.971998 
L 81.889335 -91.888883 
L 81.895458 -93.805768 
L 81.856456 -95.722654 
L 81.696954 -97.639539 
L 81.465678 -99.556424 
L 81.388308 -101.473309 
L 81.296562 -103.390195 
L 80.421791 -105.30708 
L 78.782528 -107.223965 
L 77.772386 -109.140851 
L 77.881152 -111.057736 
L 79.168238 -112.974621 
L 80.493049 -114.891506 
L 80.701258 -116.808392 
L 80.673817 -118.725277 
L 80.590455 -120.642162 
L 80.028209 -122.559048 
L 79.103043 -124.475933 
L 78.17948 -126.392818 
L 77.943951 -128.309703 
L 78.049588 -130.226589 
L 77.247291 -132.143474 
L 75.405525 -134.060359 
L 74.141597 -135.977244 
L 73.980127 -137.89413 
L 74.162319 -139.811015 
L 73.932351 -141.7279 
L 73.407682 -143.644786 
L 72.602837 -145.561671 
L 71.034623 -147.478556 
L 71.025112 -149.395441 
L 72.245494 -151.312327 
L 72.340072 -153.229212 
L 71.852049 -155.146097 
L 71.166629 -157.062983 
L 69.967584 -158.979868 
L 69.033851 -160.896753 
L 68.970762 -162.813638 
L 69.127213 -164.730524 
L 67.202924 -166.647409 
L 65.00143 -168.564294 
L 66.095009 -170.481179 
L 67.804736 -172.398065 
L 67.214725 -174.31495 
L 65.728397 -176.231835 
L 63.457065 -178.148721 
L 61.571824 -180.065606 
L 61.331193 -181.982491 
L 62.379619 -183.899376 
L 64.088249 -185.816262 
L 65.133756 -187.733147 
L 65.482744 -189.650032 
L 64.860627 -191.566918 
L 63.172221 -193.483803 
L 62.403223 -195.400688 
L 62.745378 -197.317573 
L 62.527135 -199.234459 
L 62.480854 -201.151344 
L 64.447189 -203.068229 
L 67.793113 -204.985115 
L 70.822622 -206.902 
L 72.418655 -208.818885 
L 73.961613 -210.73577 
L 75.84083 -212.652656 
L 77.257105 -214.569541 
L 78.45313 -216.486426 
L 79.280128 -218.403311 
L 79.785016 -220.320197 
L 80.49018 -222.237082 
L 81.119271 -224.153967 
L 81.556837 -226.070853 
L 81.776078 -227.987738 
L 81.755126 -229.904623 
L 81.706016 -231.821508 
L 81.78762 -233.738394 
L 81.873724 -235.655279 
L 81.926276 -235.655279 
L 81.926276 -235.655279 
L 82.01238 -233.738394 
L 82.093984 -231.821508 
L 82.044874 -229.904623 
L 82.023922 -227.987738 
L 82.243163 -226.070853 
L 82.680729 -224.153967 
L 83.30982 -222.237082 
L 84.014984 -220.320197 
L 84.519872 -218.403311 
L 85.34687 -216.486426 
L 86.542895 -214.569541 
L 87.95917 -212.652656 
L 89.838387 -210.73577 
L 91.381345 -208.818885 
L 92.977378 -206.902 
L 96.006887 -204.985115 
L 99.352811 -203.068229 
L 101.319146 -201.151344 
L 101.272865 -199.234459 
L 101.054622 -197.317573 
L 101.396777 -195.400688 
L 100.627779 -193.483803 
L 98.939373 -191.566918 
L 98.317256 -189.650032 
L 98.666244 -187.733147 
L 99.711751 -185.816262 
L 101.420381 -183.899376 
L 102.468807 -181.982491 
L 102.228176 -180.065606 
L 100.342935 -178.148721 
L 98.071603 -176.231835 
L 96.585275 -174.31495 
L 95.995264 -172.398065 
L 97.704991 -170.481179 
L 98.79857 -168.564294 
L 96.597076 -166.647409 
L 94.672787 -164.730524 
L 94.829238 -162.813638 
L 94.766149 -160.896753 
L 93.832416 -158.979868 
L 92.633371 -157.062983 
L 91.947951 -155.146097 
L 91.459928 -153.229212 
L 91.554506 -151.312327 
L 92.774888 -149.395441 
L 92.765377 -147.478556 
L 91.197163 -145.561671 
L 90.392318 -143.644786 
L 89.867649 -141.7279 
L 89.637681 -139.811015 
L 89.819873 -137.89413 
L 89.658403 -135.977244 
L 88.394475 -134.060359 
L 86.552709 -132.143474 
L 85.750412 -130.226589 
L 85.856049 -128.309703 
L 85.62052 -126.392818 
L 84.696957 -124.475933 
L 83.771791 -122.559048 
L 83.209545 -120.642162 
L 83.126183 -118.725277 
L 83.098742 -116.808392 
L 83.306951 -114.891506 
L 84.631762 -112.974621 
L 85.918848 -111.057736 
L 86.027614 -109.140851 
L 85.017472 -107.223965 
L 83.378209 -105.30708 
L 82.503438 -103.390195 
L 82.411692 -101.473309 
L 82.334322 -99.556424 
L 82.103046 -97.639539 
L 81.943544 -95.722654 
L 81.904542 -93.805768 
L 81.910665 -91.888883 
L 81.973899 -89.971998 
L 82.108879 -88.055113 
L 82.137565 -86.138227 
L 82.008715 -84.221342 
L 81.920018 -82.304457 
L 81.901483 -80.387571 
L 81.900044 -78.470686 
L 81.900001 -76.553801 
L 81.9 -74.636916 
L 81.9 -72.72003 
L 81.9 -70.803145 
L 81.9 -68.88626 
L 81.9 -66.969374 
L 81.9 -65.052489 
L 81.9 -63.135604 
L 81.9 -61.218719 
L 81.900007 -59.301833 
L 81.90041 -57.384948 
L 81.909096 -55.468063 
L 81.981154 -53.551177 
L 82.191326 -51.634292 
L 82.320792 -49.717407 
L 82.144555 -47.800522 
L 81.957188 -45.883636 
z
" id="ma2c8ff4a40" style="stroke:#3d3d3d;stroke-width:1.5;"/>
    </defs>
    <g clip-path="url(#p10c379af72)">
     <use style="fill:#3274a1;stroke:#3d3d3d;stroke-width:1.5;" x="0" xlink:href="#ma2c8ff4a40" y="288"/>
    </g>
   </g>
   <g id="PolyCollection_2">
    <defs>
     <path d="M 137.743053 -46.798162 
L 137.656947 -46.798162 
L 137.55123 -48.630121 
L 137.414587 -50.46208 
L 137.395995 -52.294039 
L 137.520167 -54.125997 
L 137.640005 -55.957956 
L 137.680331 -57.789915 
L 137.653463 -59.621874 
L 137.570123 -61.453833 
L 137.48537 -63.285792 
L 137.463185 -65.11775 
L 137.447405 -66.949709 
L 137.382071 -68.781668 
L 137.335001 -70.613627 
L 137.344182 -72.445586 
L 137.269497 -74.277545 
L 137.018824 -76.109503 
L 136.816506 -77.941462 
L 136.792706 -79.773421 
L 136.721668 -81.60538 
L 136.450114 -83.437339 
L 136.201239 -85.269298 
L 136.282716 -87.101256 
L 136.500436 -88.933215 
L 136.286558 -90.765174 
L 135.495794 -92.597133 
L 134.756613 -94.429092 
L 134.469421 -96.261051 
L 134.368574 -98.093009 
L 134.547334 -99.924968 
L 135.176326 -101.756927 
L 135.711592 -103.588886 
L 135.574221 -105.420845 
L 134.880294 -107.252804 
L 134.13622 -109.084762 
L 133.614616 -110.916721 
L 132.922785 -112.74868 
L 131.78563 -114.580639 
L 130.71536 -116.412598 
L 130.144939 -118.244557 
L 130.328576 -120.076515 
L 131.161792 -121.908474 
L 131.538876 -123.740433 
L 130.673266 -125.572392 
L 129.084578 -127.404351 
L 127.809703 -129.23631 
L 127.69581 -131.068268 
L 128.478673 -132.900227 
L 128.805486 -134.732186 
L 127.934042 -136.564145 
L 126.533939 -138.396104 
L 125.420511 -140.228063 
L 124.78807 -142.060021 
L 124.977111 -143.89198 
L 126.314528 -145.723939 
L 128.261707 -147.555898 
L 129.452627 -149.387857 
L 129.089632 -151.219816 
L 127.984903 -153.051774 
L 127.314389 -154.883733 
L 127.022231 -156.715692 
L 126.315966 -158.547651 
L 125.525451 -160.37961 
L 125.576598 -162.211569 
L 125.962321 -164.043527 
L 125.971142 -165.875486 
L 125.669868 -167.707445 
L 124.444441 -169.539404 
L 121.950298 -171.371363 
L 119.747611 -173.203322 
L 119.57534 -175.03528 
L 121.263554 -176.867239 
L 123.286154 -178.699198 
L 124.330599 -180.531157 
L 124.420329 -182.363116 
L 123.896494 -184.195075 
L 123.019377 -186.027033 
L 123.2779 -187.858992 
L 124.888653 -189.690951 
L 125.565819 -191.52291 
L 124.893853 -193.354869 
L 123.981909 -195.186828 
L 122.745987 -197.018786 
L 121.909393 -198.850745 
L 122.976951 -200.682704 
L 125.824259 -202.514663 
L 129.087525 -204.346622 
L 131.500536 -206.178581 
L 132.533124 -208.010539 
L 132.556241 -209.842498 
L 132.542996 -211.674457 
L 133.341501 -213.506416 
L 134.815796 -215.338375 
L 136.068038 -217.170334 
L 136.628625 -219.002292 
L 136.811561 -220.834251 
L 137.030517 -222.66621 
L 137.330329 -224.498169 
L 137.563389 -226.330128 
L 137.668305 -228.162087 
L 137.731695 -228.162087 
L 137.731695 -228.162087 
L 137.836611 -226.330128 
L 138.069671 -224.498169 
L 138.369483 -222.66621 
L 138.588439 -220.834251 
L 138.771375 -219.002292 
L 139.331962 -217.170334 
L 140.584204 -215.338375 
L 142.058499 -213.506416 
L 142.857004 -211.674457 
L 142.843759 -209.842498 
L 142.866876 -208.010539 
L 143.899464 -206.178581 
L 146.312475 -204.346622 
L 149.575741 -202.514663 
L 152.423049 -200.682704 
L 153.490607 -198.850745 
L 152.654013 -197.018786 
L 151.418091 -195.186828 
L 150.506147 -193.354869 
L 149.834181 -191.52291 
L 150.511347 -189.690951 
L 152.1221 -187.858992 
L 152.380623 -186.027033 
L 151.503506 -184.195075 
L 150.979671 -182.363116 
L 151.069401 -180.531157 
L 152.113846 -178.699198 
L 154.136446 -176.867239 
L 155.82466 -175.03528 
L 155.652389 -173.203322 
L 153.449702 -171.371363 
L 150.955559 -169.539404 
L 149.730132 -167.707445 
L 149.428858 -165.875486 
L 149.437679 -164.043527 
L 149.823402 -162.211569 
L 149.874549 -160.37961 
L 149.084034 -158.547651 
L 148.377769 -156.715692 
L 148.085611 -154.883733 
L 147.415097 -153.051774 
L 146.310368 -151.219816 
L 145.947373 -149.387857 
L 147.138293 -147.555898 
L 149.085472 -145.723939 
L 150.422889 -143.89198 
L 150.61193 -142.060021 
L 149.979489 -140.228063 
L 148.866061 -138.396104 
L 147.465958 -136.564145 
L 146.594514 -134.732186 
L 146.921327 -132.900227 
L 147.70419 -131.068268 
L 147.590297 -129.23631 
L 146.315422 -127.404351 
L 144.726734 -125.572392 
L 143.861124 -123.740433 
L 144.238208 -121.908474 
L 145.071424 -120.076515 
L 145.255061 -118.244557 
L 144.68464 -116.412598 
L 143.61437 -114.580639 
L 142.477215 -112.74868 
L 141.785384 -110.916721 
L 141.26378 -109.084762 
L 140.519706 -107.252804 
L 139.825779 -105.420845 
L 139.688408 -103.588886 
L 140.223674 -101.756927 
L 140.852666 -99.924968 
L 141.031426 -98.093009 
L 140.930579 -96.261051 
L 140.643387 -94.429092 
L 139.904206 -92.597133 
L 139.113442 -90.765174 
L 138.899564 -88.933215 
L 139.117284 -87.101256 
L 139.198761 -85.269298 
L 138.949886 -83.437339 
L 138.678332 -81.60538 
L 138.607294 -79.773421 
L 138.583494 -77.941462 
L 138.381176 -76.109503 
L 138.130503 -74.277545 
L 138.055818 -72.445586 
L 138.064999 -70.613627 
L 138.017929 -68.781668 
L 137.952595 -66.949709 
L 137.936815 -65.11775 
L 137.91463 -63.285792 
L 137.829877 -61.453833 
L 137.746537 -59.621874 
L 137.719669 -57.789915 
L 137.759995 -55.957956 
L 137.879833 -54.125997 
L 138.004005 -52.294039 
L 137.985413 -50.46208 
L 137.84877 -48.630121 
L 137.743053 -46.798162 
z
" id="mb4cc822d67" style="stroke:#3d3d3d;stroke-width:1.5;"/>
    </defs>
    <g clip-path="url(#p10c379af72)">
     <use style="fill:#e1812c;stroke:#3d3d3d;stroke-width:1.5;" x="0" xlink:href="#mb4cc822d67" y="288"/>
    </g>
   </g>
   <g id="PolyCollection_3">
    <defs>
     <path d="M 193.546823 -55.737392 
L 193.453177 -55.737392 
L 193.314432 -57.618923 
L 193.16324 -59.500453 
L 193.220161 -61.381983 
L 193.393486 -63.263513 
L 193.480511 -65.145043 
L 193.486819 -67.026573 
L 193.433034 -68.908104 
L 193.324786 -70.789634 
L 193.289912 -72.671164 
L 193.384653 -74.552694 
L 193.471001 -76.434224 
L 193.496656 -78.315755 
L 193.499596 -80.197285 
L 193.495937 -82.078815 
L 193.466204 -83.960345 
L 193.3635 -85.841875 
L 193.208361 -87.723405 
L 193.116988 -89.604936 
L 193.105823 -91.486466 
L 193.043069 -93.367996 
L 192.987164 -95.249526 
L 193.050274 -97.131056 
L 192.846457 -99.012586 
L 192.128598 -100.894117 
L 191.335447 -102.775647 
L 190.885184 -104.657177 
L 190.844978 -106.538707 
L 191.522053 -108.420237 
L 192.417897 -110.301768 
L 192.638527 -112.183298 
L 192.348578 -114.064828 
L 192.233535 -115.946358 
L 192.071746 -117.827888 
L 191.178146 -119.709418 
L 189.706632 -121.590949 
L 188.580215 -123.472479 
L 188.394036 -125.354009 
L 188.83307 -127.235539 
L 189.344193 -129.117069 
L 189.377792 -130.998599 
L 189.055644 -132.88013 
L 188.90161 -134.76166 
L 188.460303 -136.64319 
L 187.667111 -138.52472 
L 187.105782 -140.40625 
L 186.654502 -142.287781 
L 186.099492 -144.169311 
L 185.740496 -146.050841 
L 185.98024 -147.932371 
L 185.889545 -149.813901 
L 184.7132 -151.695431 
L 182.804778 -153.576962 
L 180.456443 -155.458492 
L 178.580637 -157.340022 
L 178.253461 -159.221552 
L 178.893866 -161.103082 
L 179.616433 -162.984612 
L 180.076671 -164.866143 
L 180.620807 -166.747673 
L 181.16048 -168.629203 
L 181.33315 -170.510733 
L 181.227376 -172.392263 
L 180.796291 -174.273794 
L 180.418311 -176.155324 
L 179.739892 -178.036854 
L 178.291751 -179.918384 
L 176.984841 -181.799914 
L 176.927727 -183.681444 
L 177.983743 -185.562975 
L 178.50646 -187.444505 
L 178.371389 -189.326035 
L 178.3677 -191.207565 
L 178.468724 -193.089095 
L 177.914444 -194.970625 
L 176.905019 -196.852156 
L 176.86667 -198.733686 
L 176.596434 -200.615216 
L 175.45134 -202.496746 
L 175.94332 -204.378276 
L 177.385837 -206.259807 
L 177.96527 -208.141337 
L 178.278696 -210.022867 
L 178.94788 -211.904397 
L 181.011788 -213.785927 
L 184.156802 -215.667457 
L 187.27037 -217.548988 
L 189.850721 -219.430518 
L 191.208449 -221.312048 
L 191.254557 -223.193578 
L 190.871301 -225.075108 
L 190.849439 -226.956638 
L 191.155478 -228.838169 
L 191.664132 -230.719699 
L 192.450083 -232.601229 
L 193.095365 -234.482759 
L 193.307397 -236.364289 
L 193.343184 -238.24582 
L 193.417 -240.12735 
L 193.479136 -242.00888 
L 193.520864 -242.00888 
L 193.520864 -242.00888 
L 193.583 -240.12735 
L 193.656816 -238.24582 
L 193.692603 -236.364289 
L 193.904635 -234.482759 
L 194.549917 -232.601229 
L 195.335868 -230.719699 
L 195.844522 -228.838169 
L 196.150561 -226.956638 
L 196.128699 -225.075108 
L 195.745443 -223.193578 
L 195.791551 -221.312048 
L 197.149279 -219.430518 
L 199.72963 -217.548988 
L 202.843198 -215.667457 
L 205.988212 -213.785927 
L 208.05212 -211.904397 
L 208.721304 -210.022867 
L 209.03473 -208.141337 
L 209.614163 -206.259807 
L 211.05668 -204.378276 
L 211.54866 -202.496746 
L 210.403566 -200.615216 
L 210.13333 -198.733686 
L 210.094981 -196.852156 
L 209.085556 -194.970625 
L 208.531276 -193.089095 
L 208.6323 -191.207565 
L 208.628611 -189.326035 
L 208.49354 -187.444505 
L 209.016257 -185.562975 
L 210.072273 -183.681444 
L 210.015159 -181.799914 
L 208.708249 -179.918384 
L 207.260108 -178.036854 
L 206.581689 -176.155324 
L 206.203709 -174.273794 
L 205.772624 -172.392263 
L 205.66685 -170.510733 
L 205.83952 -168.629203 
L 206.379193 -166.747673 
L 206.923329 -164.866143 
L 207.383567 -162.984612 
L 208.106134 -161.103082 
L 208.746539 -159.221552 
L 208.419363 -157.340022 
L 206.543557 -155.458492 
L 204.195222 -153.576962 
L 202.2868 -151.695431 
L 201.110455 -149.813901 
L 201.01976 -147.932371 
L 201.259504 -146.050841 
L 200.900508 -144.169311 
L 200.345498 -142.287781 
L 199.894218 -140.40625 
L 199.332889 -138.52472 
L 198.539697 -136.64319 
L 198.09839 -134.76166 
L 197.944356 -132.88013 
L 197.622208 -130.998599 
L 197.655807 -129.117069 
L 198.16693 -127.235539 
L 198.605964 -125.354009 
L 198.419785 -123.472479 
L 197.293368 -121.590949 
L 195.821854 -119.709418 
L 194.928254 -117.827888 
L 194.766465 -115.946358 
L 194.651422 -114.064828 
L 194.361473 -112.183298 
L 194.582103 -110.301768 
L 195.477947 -108.420237 
L 196.155022 -106.538707 
L 196.114816 -104.657177 
L 195.664553 -102.775647 
L 194.871402 -100.894117 
L 194.153543 -99.012586 
L 193.949726 -97.131056 
L 194.012836 -95.249526 
L 193.956931 -93.367996 
L 193.894177 -91.486466 
L 193.883012 -89.604936 
L 193.791639 -87.723405 
L 193.6365 -85.841875 
L 193.533796 -83.960345 
L 193.504063 -82.078815 
L 193.500404 -80.197285 
L 193.503344 -78.315755 
L 193.528999 -76.434224 
L 193.615347 -74.552694 
L 193.710088 -72.671164 
L 193.675214 -70.789634 
L 193.566966 -68.908104 
L 193.513181 -67.026573 
L 193.519489 -65.145043 
L 193.606514 -63.263513 
L 193.779839 -61.381983 
L 193.83676 -59.500453 
L 193.685568 -57.618923 
L 193.546823 -55.737392 
z
" id="maf2a1f9c80" style="stroke:#3d3d3d;stroke-width:1.5;"/>
    </defs>
    <g clip-path="url(#p10c379af72)">
     <use style="fill:#3a923a;stroke:#3d3d3d;stroke-width:1.5;" x="0" xlink:href="#maf2a1f9c80" y="288"/>
    </g>
   </g>
   <g id="PolyCollection_4">
    <defs>
     <path d="M 249.360099 -61.18158 
L 249.239901 -61.18158 
L 249.043328 -63.023749 
L 248.834109 -64.865919 
L 248.940581 -66.708088 
L 249.182113 -68.550258 
L 249.282458 -70.392428 
L 249.283685 -72.234597 
L 249.210569 -74.076767 
L 249.078903 -75.918936 
L 249.067972 -77.761106 
L 249.196667 -79.603275 
L 249.280471 -81.445445 
L 249.298433 -83.287614 
L 249.299922 -85.129784 
L 249.299118 -86.971953 
L 249.286874 -88.814123 
L 249.215438 -90.656292 
L 249.048259 -92.498462 
L 248.857251 -94.340631 
L 248.613451 -96.182801 
L 248.37455 -98.024971 
L 248.37524 -99.86714 
L 248.459212 -101.70931 
L 248.407448 -103.551479 
L 248.270403 -105.393649 
L 247.89577 -107.235818 
L 247.089277 -109.077988 
L 246.669738 -110.920157 
L 247.247206 -112.762327 
L 247.757309 -114.604496 
L 247.323388 -116.446666 
L 246.363041 -118.288835 
L 245.923004 -120.131005 
L 246.262717 -121.973174 
L 246.53094 -123.815344 
L 245.86531 -125.657514 
L 245.050377 -127.499683 
L 244.764332 -129.341853 
L 244.367238 -131.184022 
L 243.21494 -133.026192 
L 242.239384 -134.868361 
L 243.118326 -136.710531 
L 244.398597 -138.5527 
L 244.127908 -140.39487 
L 242.922193 -142.237039 
L 242.077743 -144.079209 
L 241.913006 -145.921378 
L 241.334697 -147.763548 
L 239.756805 -149.605717 
L 237.383496 -151.447887 
L 235.05613 -153.290057 
L 234.556286 -155.132226 
L 235.558015 -156.974396 
L 235.289988 -158.816565 
L 233.749718 -160.658735 
L 234.19982 -162.500904 
L 235.897783 -164.343074 
L 236.09442 -166.185243 
L 235.503354 -168.027413 
L 235.253273 -169.869582 
L 234.690568 -171.711752 
L 234.538526 -173.553921 
L 235.2028 -175.396091 
L 235.088119 -177.23826 
L 233.992624 -179.08043 
L 232.159111 -180.9226 
L 230.977778 -182.764769 
L 232.013178 -184.606939 
L 233.282969 -186.449108 
L 233.056222 -188.291278 
L 232.330605 -190.133447 
L 231.279686 -191.975617 
L 231.383797 -193.817786 
L 232.588893 -195.659956 
L 233.155923 -197.502125 
L 232.768907 -199.344295 
L 232.549922 -201.186464 
L 233.25894 -203.028634 
L 234.250899 -204.870803 
L 235.497401 -206.712973 
L 236.3808 -208.555143 
L 237.931568 -210.397312 
L 240.712414 -212.239482 
L 242.942355 -214.081651 
L 244.283396 -215.923821 
L 245.285075 -217.76599 
L 245.64936 -219.60816 
L 245.793666 -221.450329 
L 246.539174 -223.292499 
L 247.648983 -225.134668 
L 248.428788 -226.976838 
L 248.815426 -228.819007 
L 248.994797 -230.661177 
L 249.070387 -232.503346 
L 249.083808 -234.345516 
L 248.942985 -236.187686 
L 248.833011 -238.029855 
L 248.959517 -239.872025 
L 249.165142 -241.714194 
L 249.272782 -243.556364 
L 249.327218 -243.556364 
L 249.327218 -243.556364 
L 249.434858 -241.714194 
L 249.640483 -239.872025 
L 249.766989 -238.029855 
L 249.657015 -236.187686 
L 249.516192 -234.345516 
L 249.529613 -232.503346 
L 249.605203 -230.661177 
L 249.784574 -228.819007 
L 250.171212 -226.976838 
L 250.951017 -225.134668 
L 252.060826 -223.292499 
L 252.806334 -221.450329 
L 252.95064 -219.60816 
L 253.314925 -217.76599 
L 254.316604 -215.923821 
L 255.657645 -214.081651 
L 257.887586 -212.239482 
L 260.668432 -210.397312 
L 262.2192 -208.555143 
L 263.102599 -206.712973 
L 264.349101 -204.870803 
L 265.34106 -203.028634 
L 266.050078 -201.186464 
L 265.831093 -199.344295 
L 265.444077 -197.502125 
L 266.011107 -195.659956 
L 267.216203 -193.817786 
L 267.320314 -191.975617 
L 266.269395 -190.133447 
L 265.543778 -188.291278 
L 265.317031 -186.449108 
L 266.586822 -184.606939 
L 267.622222 -182.764769 
L 266.440889 -180.9226 
L 264.607376 -179.08043 
L 263.511881 -177.23826 
L 263.3972 -175.396091 
L 264.061474 -173.553921 
L 263.909432 -171.711752 
L 263.346727 -169.869582 
L 263.096646 -168.027413 
L 262.50558 -166.185243 
L 262.702217 -164.343074 
L 264.40018 -162.500904 
L 264.850282 -160.658735 
L 263.310012 -158.816565 
L 263.041985 -156.974396 
L 264.043714 -155.132226 
L 263.54387 -153.290057 
L 261.216504 -151.447887 
L 258.843195 -149.605717 
L 257.265303 -147.763548 
L 256.686994 -145.921378 
L 256.522257 -144.079209 
L 255.677807 -142.237039 
L 254.472092 -140.39487 
L 254.201403 -138.5527 
L 255.481674 -136.710531 
L 256.360616 -134.868361 
L 255.38506 -133.026192 
L 254.232762 -131.184022 
L 253.835668 -129.341853 
L 253.549623 -127.499683 
L 252.73469 -125.657514 
L 252.06906 -123.815344 
L 252.337283 -121.973174 
L 252.676996 -120.131005 
L 252.236959 -118.288835 
L 251.276612 -116.446666 
L 250.842691 -114.604496 
L 251.352794 -112.762327 
L 251.930262 -110.920157 
L 251.510723 -109.077988 
L 250.70423 -107.235818 
L 250.329597 -105.393649 
L 250.192552 -103.551479 
L 250.140788 -101.70931 
L 250.22476 -99.86714 
L 250.22545 -98.024971 
L 249.986549 -96.182801 
L 249.742749 -94.340631 
L 249.551741 -92.498462 
L 249.384562 -90.656292 
L 249.313126 -88.814123 
L 249.300882 -86.971953 
L 249.300078 -85.129784 
L 249.301567 -83.287614 
L 249.319529 -81.445445 
L 249.403333 -79.603275 
L 249.532028 -77.761106 
L 249.521097 -75.918936 
L 249.389431 -74.076767 
L 249.316315 -72.234597 
L 249.317542 -70.392428 
L 249.417887 -68.550258 
L 249.659419 -66.708088 
L 249.765891 -64.865919 
L 249.556672 -63.023749 
L 249.360099 -61.18158 
z
" id="m3898f55cc7" style="stroke:#3d3d3d;stroke-width:1.5;"/>
    </defs>
    <g clip-path="url(#p10c379af72)">
     <use style="fill:#c03d3e;stroke:#3d3d3d;stroke-width:1.5;" x="0" xlink:href="#m3898f55cc7" y="288"/>
    </g>
   </g>
   <g id="PolyCollection_5">
    <defs>
     <path d="M 305.125695 -57.230482 
L 305.074305 -57.230482 
L 304.982347 -59.090676 
L 304.910267 -60.950869 
L 304.990205 -62.811063 
L 305.048769 -64.671256 
L 304.952165 -66.531449 
L 304.846251 -68.391643 
L 304.945106 -70.251836 
L 305.066686 -72.112029 
L 305.096482 -73.972223 
L 305.081336 -75.832416 
L 304.977956 -77.692609 
L 304.817843 -79.552803 
L 304.865211 -81.412996 
L 304.969915 -83.27319 
L 304.819205 -85.133383 
L 304.683131 -86.993576 
L 304.845014 -88.85377 
L 304.885157 -90.713963 
L 304.725456 -92.574156 
L 304.720762 -94.43435 
L 304.887884 -96.294543 
L 304.894406 -98.154736 
L 304.529961 -100.01493 
L 304.147226 -101.875123 
L 304.273453 -103.735317 
L 304.477936 -105.59551 
L 304.257558 -107.455703 
L 303.841459 -109.315897 
L 303.614241 -111.17609 
L 303.337236 -113.036283 
L 302.99913 -114.896477 
L 303.342413 -116.75667 
L 303.394216 -118.616864 
L 302.503567 -120.477057 
L 301.261044 -122.33725 
L 300.457464 -124.197444 
L 300.66926 -126.057637 
L 301.08626 -127.91783 
L 300.688507 -129.778024 
L 299.93709 -131.638217 
L 300.235146 -133.49841 
L 300.782379 -135.358604 
L 300.823411 -137.218797 
L 300.38268 -139.078991 
L 300.540191 -140.939184 
L 300.124824 -142.799377 
L 298.470896 -144.659571 
L 297.715542 -146.519764 
L 296.554861 -148.379957 
L 294.434753 -150.240151 
L 293.43273 -152.100344 
L 294.064094 -153.960537 
L 294.725568 -155.820731 
L 292.830677 -157.680924 
L 289.716469 -159.541118 
L 289.890132 -161.401311 
L 291.180157 -163.261504 
L 290.664916 -165.121698 
L 290.600655 -166.981891 
L 289.878262 -168.842084 
L 289.062221 -170.702278 
L 289.515833 -172.562471 
L 289.144112 -174.422665 
L 288.476816 -176.282858 
L 288.087935 -178.143051 
L 287.937462 -180.003245 
L 287.801728 -181.863438 
L 285.808928 -183.723631 
L 282.804659 -185.583825 
L 282.848961 -187.444018 
L 285.018355 -189.304211 
L 286.651415 -191.164405 
L 286.556155 -193.024598 
L 284.406997 -194.884792 
L 283.094856 -196.744985 
L 282.78 -198.605178 
L 283.665495 -200.465372 
L 287.79655 -202.325565 
L 290.902582 -204.185758 
L 292.298245 -206.045952 
L 295.201642 -207.906145 
L 298.066974 -209.766338 
L 299.494732 -211.626532 
L 300.759872 -213.486725 
L 302.192623 -215.346919 
L 303.160227 -217.207112 
L 303.324679 -219.067305 
L 303.306974 -220.927499 
L 303.396705 -222.787692 
L 303.920839 -224.647885 
L 304.369773 -226.508079 
L 304.486885 -228.368272 
L 304.727345 -230.228466 
L 304.996418 -232.088659 
L 305.081546 -233.948852 
L 305.063829 -235.809046 
L 305.037099 -237.669239 
L 305.060989 -239.529432 
L 305.09148 -241.389626 
L 305.10852 -241.389626 
L 305.10852 -241.389626 
L 305.139011 -239.529432 
L 305.162901 -237.669239 
L 305.136171 -235.809046 
L 305.118454 -233.948852 
L 305.203582 -232.088659 
L 305.472655 -230.228466 
L 305.713115 -228.368272 
L 305.830227 -226.508079 
L 306.279161 -224.647885 
L 306.803295 -222.787692 
L 306.893026 -220.927499 
L 306.875321 -219.067305 
L 307.039773 -217.207112 
L 308.007377 -215.346919 
L 309.440128 -213.486725 
L 310.705268 -211.626532 
L 312.133026 -209.766338 
L 314.998358 -207.906145 
L 317.901755 -206.045952 
L 319.297418 -204.185758 
L 322.40345 -202.325565 
L 326.534505 -200.465372 
L 327.42 -198.605178 
L 327.105144 -196.744985 
L 325.793003 -194.884792 
L 323.643845 -193.024598 
L 323.548585 -191.164405 
L 325.181645 -189.304211 
L 327.351039 -187.444018 
L 327.395341 -185.583825 
L 324.391072 -183.723631 
L 322.398272 -181.863438 
L 322.262538 -180.003245 
L 322.112065 -178.143051 
L 321.723184 -176.282858 
L 321.055888 -174.422665 
L 320.684167 -172.562471 
L 321.137779 -170.702278 
L 320.321738 -168.842084 
L 319.599345 -166.981891 
L 319.535084 -165.121698 
L 319.019843 -163.261504 
L 320.309868 -161.401311 
L 320.483531 -159.541118 
L 317.369323 -157.680924 
L 315.474432 -155.820731 
L 316.135906 -153.960537 
L 316.76727 -152.100344 
L 315.765247 -150.240151 
L 313.645139 -148.379957 
L 312.484458 -146.519764 
L 311.729104 -144.659571 
L 310.075176 -142.799377 
L 309.659809 -140.939184 
L 309.81732 -139.078991 
L 309.376589 -137.218797 
L 309.417621 -135.358604 
L 309.964854 -133.49841 
L 310.26291 -131.638217 
L 309.511493 -129.778024 
L 309.11374 -127.91783 
L 309.53074 -126.057637 
L 309.742536 -124.197444 
L 308.938956 -122.33725 
L 307.696433 -120.477057 
L 306.805784 -118.616864 
L 306.857587 -116.75667 
L 307.20087 -114.896477 
L 306.862764 -113.036283 
L 306.585759 -111.17609 
L 306.358541 -109.315897 
L 305.942442 -107.455703 
L 305.722064 -105.59551 
L 305.926547 -103.735317 
L 306.052774 -101.875123 
L 305.670039 -100.01493 
L 305.305594 -98.154736 
L 305.312116 -96.294543 
L 305.479238 -94.43435 
L 305.474544 -92.574156 
L 305.314843 -90.713963 
L 305.354986 -88.85377 
L 305.516869 -86.993576 
L 305.380795 -85.133383 
L 305.230085 -83.27319 
L 305.334789 -81.412996 
L 305.382157 -79.552803 
L 305.222044 -77.692609 
L 305.118664 -75.832416 
L 305.103518 -73.972223 
L 305.133314 -72.112029 
L 305.254894 -70.251836 
L 305.353749 -68.391643 
L 305.247835 -66.531449 
L 305.151231 -64.671256 
L 305.209795 -62.811063 
L 305.289733 -60.950869 
L 305.217653 -59.090676 
L 305.125695 -57.230482 
z
" id="m9c2e07294d" style="stroke:#3d3d3d;stroke-width:1.5;"/>
    </defs>
    <g clip-path="url(#p10c379af72)">
     <use style="fill:#9372b2;stroke:#3d3d3d;stroke-width:1.5;" x="0" xlink:href="#m9c2e07294d" y="288"/>
    </g>
   </g>
   <g id="PolyCollection_6">
    <defs>
     <path d="M 360.925772 -55.848664 
L 360.874228 -55.848664 
L 360.787135 -57.620297 
L 360.709765 -59.391929 
L 360.776591 -61.163561 
L 360.869187 -62.935194 
L 360.897039 -64.706826 
L 360.89989 -66.478458 
L 360.899998 -68.25009 
L 360.9 -70.021723 
L 360.899999 -71.793355 
L 360.899889 -73.564987 
L 360.896684 -75.33662 
L 360.861062 -77.108252 
L 360.718827 -78.879884 
L 360.565123 -80.651517 
L 360.651981 -82.423149 
L 360.80133 -84.194781 
L 360.755768 -85.966413 
L 360.615647 -87.738046 
L 360.557742 -89.509678 
L 360.43997 -91.28131 
L 360.297928 -93.052943 
L 360.36774 -94.824575 
L 360.503511 -96.596207 
L 360.57508 -98.36784 
L 360.674715 -100.139472 
L 360.635795 -101.911104 
L 360.530062 -103.682736 
L 360.451446 -105.454369 
L 360.059538 -107.226001 
L 359.492604 -108.997633 
L 359.411505 -110.769266 
L 359.559059 -112.540898 
L 359.288058 -114.31253 
L 358.366913 -116.084162 
L 357.818793 -117.855795 
L 357.999227 -119.627427 
L 357.821155 -121.399059 
L 357.145344 -123.170692 
L 356.57367 -124.942324 
L 356.43474 -126.713956 
L 356.824065 -128.485589 
L 357.722203 -130.257221 
L 358.430194 -132.028853 
L 358.287638 -133.800485 
L 357.797288 -135.572118 
L 357.038996 -137.34375 
L 355.396807 -139.115382 
L 353.939945 -140.887015 
L 354.159837 -142.658647 
L 354.388042 -144.430279 
L 353.103126 -146.201912 
L 352.344032 -147.973544 
L 352.270583 -149.745176 
L 350.874149 -151.516808 
L 349.323188 -153.288441 
L 348.641679 -155.060073 
L 348.076571 -156.831705 
L 347.91459 -158.603338 
L 349.184335 -160.37497 
L 349.529416 -162.146602 
L 347.828964 -163.918234 
L 345.54126 -165.689867 
L 344.116404 -167.461499 
L 344.275706 -169.233131 
L 345.708192 -171.004764 
L 346.768069 -172.776396 
L 346.539625 -174.548028 
L 345.591941 -176.319661 
L 344.85679 -178.091293 
L 344.634646 -179.862925 
L 344.266151 -181.634557 
L 344.35755 -183.40619 
L 342.956156 -185.177822 
L 340.389273 -186.949454 
L 340.291587 -188.721087 
L 340.796889 -190.492719 
L 340.474519 -192.264351 
L 341.890421 -194.035984 
L 343.88555 -195.807616 
L 343.573253 -197.579248 
L 340.892806 -199.35088 
L 338.631575 -201.122513 
L 339.480963 -202.894145 
L 341.960251 -204.665777 
L 344.96073 -206.43741 
L 348.240778 -208.209042 
L 350.116271 -209.980674 
L 351.536655 -211.752306 
L 353.534284 -213.523939 
L 355.511919 -215.295571 
L 357.664389 -217.067203 
L 359.01493 -218.838836 
L 359.280422 -220.610468 
L 359.67138 -222.3821 
L 360.228866 -224.153733 
L 360.509709 -225.925365 
L 360.672029 -227.696997 
L 360.812736 -229.468629 
L 360.883186 -231.240262 
L 360.916814 -231.240262 
L 360.916814 -231.240262 
L 360.987264 -229.468629 
L 361.127971 -227.696997 
L 361.290291 -225.925365 
L 361.571134 -224.153733 
L 362.12862 -222.3821 
L 362.519578 -220.610468 
L 362.78507 -218.838836 
L 364.135611 -217.067203 
L 366.288081 -215.295571 
L 368.265716 -213.523939 
L 370.263345 -211.752306 
L 371.683729 -209.980674 
L 373.559222 -208.209042 
L 376.83927 -206.43741 
L 379.839749 -204.665777 
L 382.319037 -202.894145 
L 383.168425 -201.122513 
L 380.907194 -199.35088 
L 378.226747 -197.579248 
L 377.91445 -195.807616 
L 379.909579 -194.035984 
L 381.325481 -192.264351 
L 381.003111 -190.492719 
L 381.508413 -188.721087 
L 381.410727 -186.949454 
L 378.843844 -185.177822 
L 377.44245 -183.40619 
L 377.533849 -181.634557 
L 377.165354 -179.862925 
L 376.94321 -178.091293 
L 376.208059 -176.319661 
L 375.260375 -174.548028 
L 375.031931 -172.776396 
L 376.091808 -171.004764 
L 377.524294 -169.233131 
L 377.683596 -167.461499 
L 376.25874 -165.689867 
L 373.971036 -163.918234 
L 372.270584 -162.146602 
L 372.615665 -160.37497 
L 373.88541 -158.603338 
L 373.723429 -156.831705 
L 373.158321 -155.060073 
L 372.476812 -153.288441 
L 370.925851 -151.516808 
L 369.529417 -149.745176 
L 369.455968 -147.973544 
L 368.696874 -146.201912 
L 367.411958 -144.430279 
L 367.640163 -142.658647 
L 367.860055 -140.887015 
L 366.403193 -139.115382 
L 364.761004 -137.34375 
L 364.002712 -135.572118 
L 363.512362 -133.800485 
L 363.369806 -132.028853 
L 364.077797 -130.257221 
L 364.975935 -128.485589 
L 365.36526 -126.713956 
L 365.22633 -124.942324 
L 364.654656 -123.170692 
L 363.978845 -121.399059 
L 363.800773 -119.627427 
L 363.981207 -117.855795 
L 363.433087 -116.084162 
L 362.511942 -114.31253 
L 362.240941 -112.540898 
L 362.388495 -110.769266 
L 362.307396 -108.997633 
L 361.740462 -107.226001 
L 361.348554 -105.454369 
L 361.269938 -103.682736 
L 361.164205 -101.911104 
L 361.125285 -100.139472 
L 361.22492 -98.36784 
L 361.296489 -96.596207 
L 361.43226 -94.824575 
L 361.502072 -93.052943 
L 361.36003 -91.28131 
L 361.242258 -89.509678 
L 361.184353 -87.738046 
L 361.044232 -85.966413 
L 360.99867 -84.194781 
L 361.148019 -82.423149 
L 361.234877 -80.651517 
L 361.081173 -78.879884 
L 360.938938 -77.108252 
L 360.903316 -75.33662 
L 360.900111 -73.564987 
L 360.900001 -71.793355 
L 360.9 -70.021723 
L 360.900002 -68.25009 
L 360.90011 -66.478458 
L 360.902961 -64.706826 
L 360.930813 -62.935194 
L 361.023409 -61.163561 
L 361.090235 -59.391929 
L 361.012865 -57.620297 
L 360.925772 -55.848664 
z
" id="mae7125f79a" style="stroke:#3d3d3d;stroke-width:1.5;"/>
    </defs>
    <g clip-path="url(#p10c379af72)">
     <use style="fill:#845b53;stroke:#3d3d3d;stroke-width:1.5;" x="0" xlink:href="#mae7125f79a" y="288"/>
    </g>
   </g>
   <g id="matplotlib.axis_1">
    <g id="xtick_1">
     <g id="line2d_1">
      <defs>
       <path d="M 0 0 
L 0 3.5 
" id="m0c5c45e5f4" style="stroke:#000000;stroke-width:0.8;"/>
      </defs>
      <g>
       <use style="stroke:#000000;stroke-width:0.8;" x="81.9" xlink:href="#m0c5c45e5f4" y="252"/>
      </g>
     </g>
     <g id="text_1">
      <!-- 1991 -->
      <defs>
       <path d="M 12.40625 8.296875 
L 28.515625 8.296875 
L 28.515625 63.921875 
L 10.984375 60.40625 
L 10.984375 69.390625 
L 28.421875 72.90625 
L 38.28125 72.90625 
L 38.28125 8.296875 
L 54.390625 8.296875 
L 54.390625 0 
L 12.40625 0 
z
" id="DejaVuSans-49"/>
       <path d="M 10.984375 1.515625 
L 10.984375 10.5 
Q 14.703125 8.734375 18.5 7.8125 
Q 22.3125 6.890625 25.984375 6.890625 
Q 35.75 6.890625 40.890625 13.453125 
Q 46.046875 20.015625 46.78125 33.40625 
Q 43.953125 29.203125 39.59375 26.953125 
Q 35.25 24.703125 29.984375 24.703125 
Q 19.046875 24.703125 12.671875 31.3125 
Q 6.296875 37.9375 6.296875 49.421875 
Q 6.296875 60.640625 12.9375 67.421875 
Q 19.578125 74.21875 30.609375 74.21875 
Q 43.265625 74.21875 49.921875 64.515625 
Q 56.59375 54.828125 56.59375 36.375 
Q 56.59375 19.140625 48.40625 8.859375 
Q 40.234375 -1.421875 26.421875 -1.421875 
Q 22.703125 -1.421875 18.890625 -0.6875 
Q 15.09375 0.046875 10.984375 1.515625 
z
M 30.609375 32.421875 
Q 37.25 32.421875 41.125 36.953125 
Q 45.015625 41.5 45.015625 49.421875 
Q 45.015625 57.28125 41.125 61.84375 
Q 37.25 66.40625 30.609375 66.40625 
Q 23.96875 66.40625 20.09375 61.84375 
Q 16.21875 57.28125 16.21875 49.421875 
Q 16.21875 41.5 20.09375 36.953125 
Q 23.96875 32.421875 30.609375 32.421875 
z
" id="DejaVuSans-57"/>
      </defs>
      <g transform="translate(69.175 266.598437)scale(0.1 -0.1)">
       <use xlink:href="#DejaVuSans-49"/>
       <use x="63.623047" xlink:href="#DejaVuSans-57"/>
       <use x="127.246094" xlink:href="#DejaVuSans-57"/>
       <use x="190.869141" xlink:href="#DejaVuSans-49"/>
      </g>
     </g>
    </g>
    <g id="xtick_2">
     <g id="line2d_2">
      <g>
       <use style="stroke:#000000;stroke-width:0.8;" x="137.7" xlink:href="#m0c5c45e5f4" y="252"/>
      </g>
     </g>
     <g id="text_2">
      <!-- 1996 -->
      <defs>
       <path d="M 33.015625 40.375 
Q 26.375 40.375 22.484375 35.828125 
Q 18.609375 31.296875 18.609375 23.390625 
Q 18.609375 15.53125 22.484375 10.953125 
Q 26.375 6.390625 33.015625 6.390625 
Q 39.65625 6.390625 43.53125 10.953125 
Q 47.40625 15.53125 47.40625 23.390625 
Q 47.40625 31.296875 43.53125 35.828125 
Q 39.65625 40.375 33.015625 40.375 
z
M 52.59375 71.296875 
L 52.59375 62.3125 
Q 48.875 64.0625 45.09375 64.984375 
Q 41.3125 65.921875 37.59375 65.921875 
Q 27.828125 65.921875 22.671875 59.328125 
Q 17.53125 52.734375 16.796875 39.40625 
Q 19.671875 43.65625 24.015625 45.921875 
Q 28.375 48.1875 33.59375 48.1875 
Q 44.578125 48.1875 50.953125 41.515625 
Q 57.328125 34.859375 57.328125 23.390625 
Q 57.328125 12.15625 50.6875 5.359375 
Q 44.046875 -1.421875 33.015625 -1.421875 
Q 20.359375 -1.421875 13.671875 8.265625 
Q 6.984375 17.96875 6.984375 36.375 
Q 6.984375 53.65625 15.1875 63.9375 
Q 23.390625 74.21875 37.203125 74.21875 
Q 40.921875 74.21875 44.703125 73.484375 
Q 48.484375 72.75 52.59375 71.296875 
z
" id="DejaVuSans-54"/>
      </defs>
      <g transform="translate(124.975 266.598437)scale(0.1 -0.1)">
       <use xlink:href="#DejaVuSans-49"/>
       <use x="63.623047" xlink:href="#DejaVuSans-57"/>
       <use x="127.246094" xlink:href="#DejaVuSans-57"/>
       <use x="190.869141" xlink:href="#DejaVuSans-54"/>
      </g>
     </g>
    </g>
    <g id="xtick_3">
     <g id="line2d_3">
      <g>
       <use style="stroke:#000000;stroke-width:0.8;" x="193.5" xlink:href="#m0c5c45e5f4" y="252"/>
      </g>
     </g>
     <g id="text_3">
      <!-- 2001 -->
      <defs>
       <path d="M 19.1875 8.296875 
L 53.609375 8.296875 
L 53.609375 0 
L 7.328125 0 
L 7.328125 8.296875 
Q 12.9375 14.109375 22.625 23.890625 
Q 32.328125 33.6875 34.8125 36.53125 
Q 39.546875 41.84375 41.421875 45.53125 
Q 43.3125 49.21875 43.3125 52.78125 
Q 43.3125 58.59375 39.234375 62.25 
Q 35.15625 65.921875 28.609375 65.921875 
Q 23.96875 65.921875 18.8125 64.3125 
Q 13.671875 62.703125 7.8125 59.421875 
L 7.8125 69.390625 
Q 13.765625 71.78125 18.9375 73 
Q 24.125 74.21875 28.421875 74.21875 
Q 39.75 74.21875 46.484375 68.546875 
Q 53.21875 62.890625 53.21875 53.421875 
Q 53.21875 48.921875 51.53125 44.890625 
Q 49.859375 40.875 45.40625 35.40625 
Q 44.1875 33.984375 37.640625 27.21875 
Q 31.109375 20.453125 19.1875 8.296875 
z
" id="DejaVuSans-50"/>
       <path d="M 31.78125 66.40625 
Q 24.171875 66.40625 20.328125 58.90625 
Q 16.5 51.421875 16.5 36.375 
Q 16.5 21.390625 20.328125 13.890625 
Q 24.171875 6.390625 31.78125 6.390625 
Q 39.453125 6.390625 43.28125 13.890625 
Q 47.125 21.390625 47.125 36.375 
Q 47.125 51.421875 43.28125 58.90625 
Q 39.453125 66.40625 31.78125 66.40625 
z
M 31.78125 74.21875 
Q 44.046875 74.21875 50.515625 64.515625 
Q 56.984375 54.828125 56.984375 36.375 
Q 56.984375 17.96875 50.515625 8.265625 
Q 44.046875 -1.421875 31.78125 -1.421875 
Q 19.53125 -1.421875 13.0625 8.265625 
Q 6.59375 17.96875 6.59375 36.375 
Q 6.59375 54.828125 13.0625 64.515625 
Q 19.53125 74.21875 31.78125 74.21875 
z
" id="DejaVuSans-48"/>
      </defs>
      <g transform="translate(180.775 266.598437)scale(0.1 -0.1)">
       <use xlink:href="#DejaVuSans-50"/>
       <use x="63.623047" xlink:href="#DejaVuSans-48"/>
       <use x="127.246094" xlink:href="#DejaVuSans-48"/>
       <use x="190.869141" xlink:href="#DejaVuSans-49"/>
      </g>
     </g>
    </g>
    <g id="xtick_4">
     <g id="line2d_4">
      <g>
       <use style="stroke:#000000;stroke-width:0.8;" x="249.3" xlink:href="#m0c5c45e5f4" y="252"/>
      </g>
     </g>
     <g id="text_4">
      <!-- 2006 -->
      <g transform="translate(236.575 266.598437)scale(0.1 -0.1)">
       <use xlink:href="#DejaVuSans-50"/>
       <use x="63.623047" xlink:href="#DejaVuSans-48"/>
       <use x="127.246094" xlink:href="#DejaVuSans-48"/>
       <use x="190.869141" xlink:href="#DejaVuSans-54"/>
      </g>
     </g>
    </g>
    <g id="xtick_5">
     <g id="line2d_5">
      <g>
       <use style="stroke:#000000;stroke-width:0.8;" x="305.1" xlink:href="#m0c5c45e5f4" y="252"/>
      </g>
     </g>
     <g id="text_5">
      <!-- 2011 -->
      <g transform="translate(292.375 266.598437)scale(0.1 -0.1)">
       <use xlink:href="#DejaVuSans-50"/>
       <use x="63.623047" xlink:href="#DejaVuSans-48"/>
       <use x="127.246094" xlink:href="#DejaVuSans-49"/>
       <use x="190.869141" xlink:href="#DejaVuSans-49"/>
      </g>
     </g>
    </g>
    <g id="xtick_6">
     <g id="line2d_6">
      <g>
       <use style="stroke:#000000;stroke-width:0.8;" x="360.9" xlink:href="#m0c5c45e5f4" y="252"/>
      </g>
     </g>
     <g id="text_6">
      <!-- 2016 -->
      <g transform="translate(348.175 266.598437)scale(0.1 -0.1)">
       <use xlink:href="#DejaVuSans-50"/>
       <use x="63.623047" xlink:href="#DejaVuSans-48"/>
       <use x="127.246094" xlink:href="#DejaVuSans-49"/>
       <use x="190.869141" xlink:href="#DejaVuSans-54"/>
      </g>
     </g>
    </g>
    <g id="text_7">
     <!-- year -->
     <defs>
      <path d="M 32.171875 -5.078125 
Q 28.375 -14.84375 24.75 -17.8125 
Q 21.140625 -20.796875 15.09375 -20.796875 
L 7.90625 -20.796875 
L 7.90625 -13.28125 
L 13.1875 -13.28125 
Q 16.890625 -13.28125 18.9375 -11.515625 
Q 21 -9.765625 23.484375 -3.21875 
L 25.09375 0.875 
L 2.984375 54.6875 
L 12.5 54.6875 
L 29.59375 11.921875 
L 46.6875 54.6875 
L 56.203125 54.6875 
z
" id="DejaVuSans-121"/>
      <path d="M 56.203125 29.59375 
L 56.203125 25.203125 
L 14.890625 25.203125 
Q 15.484375 15.921875 20.484375 11.0625 
Q 25.484375 6.203125 34.421875 6.203125 
Q 39.59375 6.203125 44.453125 7.46875 
Q 49.3125 8.734375 54.109375 11.28125 
L 54.109375 2.78125 
Q 49.265625 0.734375 44.1875 -0.34375 
Q 39.109375 -1.421875 33.890625 -1.421875 
Q 20.796875 -1.421875 13.15625 6.1875 
Q 5.515625 13.8125 5.515625 26.8125 
Q 5.515625 40.234375 12.765625 48.109375 
Q 20.015625 56 32.328125 56 
Q 43.359375 56 49.78125 48.890625 
Q 56.203125 41.796875 56.203125 29.59375 
z
M 47.21875 32.234375 
Q 47.125 39.59375 43.09375 43.984375 
Q 39.0625 48.390625 32.421875 48.390625 
Q 24.90625 48.390625 20.390625 44.140625 
Q 15.875 39.890625 15.1875 32.171875 
z
" id="DejaVuSans-101"/>
      <path d="M 34.28125 27.484375 
Q 23.390625 27.484375 19.1875 25 
Q 14.984375 22.515625 14.984375 16.5 
Q 14.984375 11.71875 18.140625 8.90625 
Q 21.296875 6.109375 26.703125 6.109375 
Q 34.1875 6.109375 38.703125 11.40625 
Q 43.21875 16.703125 43.21875 25.484375 
L 43.21875 27.484375 
z
M 52.203125 31.203125 
L 52.203125 0 
L 43.21875 0 
L 43.21875 8.296875 
Q 40.140625 3.328125 35.546875 0.953125 
Q 30.953125 -1.421875 24.3125 -1.421875 
Q 15.921875 -1.421875 10.953125 3.296875 
Q 6 8.015625 6 15.921875 
Q 6 25.140625 12.171875 29.828125 
Q 18.359375 34.515625 30.609375 34.515625 
L 43.21875 34.515625 
L 43.21875 35.40625 
Q 43.21875 41.609375 39.140625 45 
Q 35.0625 48.390625 27.6875 48.390625 
Q 23 48.390625 18.546875 47.265625 
Q 14.109375 46.140625 10.015625 43.890625 
L 10.015625 52.203125 
Q 14.9375 54.109375 19.578125 55.046875 
Q 24.21875 56 28.609375 56 
Q 40.484375 56 46.34375 49.84375 
Q 52.203125 43.703125 52.203125 31.203125 
z
" id="DejaVuSans-97"/>
      <path d="M 41.109375 46.296875 
Q 39.59375 47.171875 37.8125 47.578125 
Q 36.03125 48 33.890625 48 
Q 26.265625 48 22.1875 43.046875 
Q 18.109375 38.09375 18.109375 28.8125 
L 18.109375 0 
L 9.078125 0 
L 9.078125 54.6875 
L 18.109375 54.6875 
L 18.109375 46.1875 
Q 20.953125 51.171875 25.484375 53.578125 
Q 30.03125 56 36.53125 56 
Q 37.453125 56 38.578125 55.875 
Q 39.703125 55.765625 41.0625 55.515625 
z
" id="DejaVuSans-114"/>
     </defs>
     <g transform="translate(210.244531 280.276563)scale(0.1 -0.1)">
      <use xlink:href="#DejaVuSans-121"/>
      <use x="59.179688" xlink:href="#DejaVuSans-101"/>
      <use x="120.703125" xlink:href="#DejaVuSans-97"/>
      <use x="181.982422" xlink:href="#DejaVuSans-114"/>
     </g>
    </g>
   </g>
   <g id="matplotlib.axis_2">
    <g id="ytick_1">
     <g id="line2d_7">
      <defs>
       <path d="M 0 0 
L -3.5 0 
" id="mbe757c22ed" style="stroke:#000000;stroke-width:0.8;"/>
      </defs>
      <g>
       <use style="stroke:#000000;stroke-width:0.8;" x="54" xlink:href="#mbe757c22ed" y="247.894791"/>
      </g>
     </g>
     <g id="text_8">
      <!-- −10 -->
      <defs>
       <path d="M 10.59375 35.5 
L 73.1875 35.5 
L 73.1875 27.203125 
L 10.59375 27.203125 
z
" id="DejaVuSans-8722"/>
      </defs>
      <g transform="translate(25.895312 251.69401)scale(0.1 -0.1)">
       <use xlink:href="#DejaVuSans-8722"/>
       <use x="83.789062" xlink:href="#DejaVuSans-49"/>
       <use x="147.412109" xlink:href="#DejaVuSans-48"/>
      </g>
     </g>
    </g>
    <g id="ytick_2">
     <g id="line2d_8">
      <g>
       <use style="stroke:#000000;stroke-width:0.8;" x="54" xlink:href="#mbe757c22ed" y="220.859992"/>
      </g>
     </g>
     <g id="text_9">
      <!-- −8 -->
      <defs>
       <path d="M 31.78125 34.625 
Q 24.75 34.625 20.71875 30.859375 
Q 16.703125 27.09375 16.703125 20.515625 
Q 16.703125 13.921875 20.71875 10.15625 
Q 24.75 6.390625 31.78125 6.390625 
Q 38.8125 6.390625 42.859375 10.171875 
Q 46.921875 13.96875 46.921875 20.515625 
Q 46.921875 27.09375 42.890625 30.859375 
Q 38.875 34.625 31.78125 34.625 
z
M 21.921875 38.8125 
Q 15.578125 40.375 12.03125 44.71875 
Q 8.5 49.078125 8.5 55.328125 
Q 8.5 64.0625 14.71875 69.140625 
Q 20.953125 74.21875 31.78125 74.21875 
Q 42.671875 74.21875 48.875 69.140625 
Q 55.078125 64.0625 55.078125 55.328125 
Q 55.078125 49.078125 51.53125 44.71875 
Q 48 40.375 41.703125 38.8125 
Q 48.828125 37.15625 52.796875 32.3125 
Q 56.78125 27.484375 56.78125 20.515625 
Q 56.78125 9.90625 50.3125 4.234375 
Q 43.84375 -1.421875 31.78125 -1.421875 
Q 19.734375 -1.421875 13.25 4.234375 
Q 6.78125 9.90625 6.78125 20.515625 
Q 6.78125 27.484375 10.78125 32.3125 
Q 14.796875 37.15625 21.921875 38.8125 
z
M 18.3125 54.390625 
Q 18.3125 48.734375 21.84375 45.5625 
Q 25.390625 42.390625 31.78125 42.390625 
Q 38.140625 42.390625 41.71875 45.5625 
Q 45.3125 48.734375 45.3125 54.390625 
Q 45.3125 60.0625 41.71875 63.234375 
Q 38.140625 66.40625 31.78125 66.40625 
Q 25.390625 66.40625 21.84375 63.234375 
Q 18.3125 60.0625 18.3125 54.390625 
z
" id="DejaVuSans-56"/>
      </defs>
      <g transform="translate(32.257812 224.659211)scale(0.1 -0.1)">
       <use xlink:href="#DejaVuSans-8722"/>
       <use x="83.789062" xlink:href="#DejaVuSans-56"/>
      </g>
     </g>
    </g>
    <g id="ytick_3">
     <g id="line2d_9">
      <g>
       <use style="stroke:#000000;stroke-width:0.8;" x="54" xlink:href="#mbe757c22ed" y="193.825193"/>
      </g>
     </g>
     <g id="text_10">
      <!-- −6 -->
      <g transform="translate(32.257812 197.624412)scale(0.1 -0.1)">
       <use xlink:href="#DejaVuSans-8722"/>
       <use x="83.789062" xlink:href="#DejaVuSans-54"/>
      </g>
     </g>
    </g>
    <g id="ytick_4">
     <g id="line2d_10">
      <g>
       <use style="stroke:#000000;stroke-width:0.8;" x="54" xlink:href="#mbe757c22ed" y="166.790394"/>
      </g>
     </g>
     <g id="text_11">
      <!-- −4 -->
      <defs>
       <path d="M 37.796875 64.3125 
L 12.890625 25.390625 
L 37.796875 25.390625 
z
M 35.203125 72.90625 
L 47.609375 72.90625 
L 47.609375 25.390625 
L 58.015625 25.390625 
L 58.015625 17.1875 
L 47.609375 17.1875 
L 47.609375 0 
L 37.796875 0 
L 37.796875 17.1875 
L 4.890625 17.1875 
L 4.890625 26.703125 
z
" id="DejaVuSans-52"/>
      </defs>
      <g transform="translate(32.257812 170.589613)scale(0.1 -0.1)">
       <use xlink:href="#DejaVuSans-8722"/>
       <use x="83.789062" xlink:href="#DejaVuSans-52"/>
      </g>
     </g>
    </g>
    <g id="ytick_5">
     <g id="line2d_11">
      <g>
       <use style="stroke:#000000;stroke-width:0.8;" x="54" xlink:href="#mbe757c22ed" y="139.755595"/>
      </g>
     </g>
     <g id="text_12">
      <!-- −2 -->
      <g transform="translate(32.257812 143.554814)scale(0.1 -0.1)">
       <use xlink:href="#DejaVuSans-8722"/>
       <use x="83.789062" xlink:href="#DejaVuSans-50"/>
      </g>
     </g>
    </g>
    <g id="ytick_6">
     <g id="line2d_12">
      <g>
       <use style="stroke:#000000;stroke-width:0.8;" x="54" xlink:href="#mbe757c22ed" y="112.720796"/>
      </g>
     </g>
     <g id="text_13">
      <!-- 0 -->
      <g transform="translate(40.6375 116.520015)scale(0.1 -0.1)">
       <use xlink:href="#DejaVuSans-48"/>
      </g>
     </g>
    </g>
    <g id="ytick_7">
     <g id="line2d_13">
      <g>
       <use style="stroke:#000000;stroke-width:0.8;" x="54" xlink:href="#mbe757c22ed" y="85.685997"/>
      </g>
     </g>
     <g id="text_14">
      <!-- 2 -->
      <g transform="translate(40.6375 89.485216)scale(0.1 -0.1)">
       <use xlink:href="#DejaVuSans-50"/>
      </g>
     </g>
    </g>
    <g id="ytick_8">
     <g id="line2d_14">
      <g>
       <use style="stroke:#000000;stroke-width:0.8;" x="54" xlink:href="#mbe757c22ed" y="58.651199"/>
      </g>
     </g>
     <g id="text_15">
      <!-- 4 -->
      <g transform="translate(40.6375 62.450417)scale(0.1 -0.1)">
       <use xlink:href="#DejaVuSans-52"/>
      </g>
     </g>
    </g>
    <g id="text_16">
     <!-- SESi -->
     <defs>
      <path d="M 53.515625 70.515625 
L 53.515625 60.890625 
Q 47.90625 63.578125 42.921875 64.890625 
Q 37.9375 66.21875 33.296875 66.21875 
Q 25.25 66.21875 20.875 63.09375 
Q 16.5 59.96875 16.5 54.203125 
Q 16.5 49.359375 19.40625 46.890625 
Q 22.3125 44.4375 30.421875 42.921875 
L 36.375 41.703125 
Q 47.40625 39.59375 52.65625 34.296875 
Q 57.90625 29 57.90625 20.125 
Q 57.90625 9.515625 50.796875 4.046875 
Q 43.703125 -1.421875 29.984375 -1.421875 
Q 24.8125 -1.421875 18.96875 -0.25 
Q 13.140625 0.921875 6.890625 3.21875 
L 6.890625 13.375 
Q 12.890625 10.015625 18.65625 8.296875 
Q 24.421875 6.59375 29.984375 6.59375 
Q 38.421875 6.59375 43.015625 9.90625 
Q 47.609375 13.234375 47.609375 19.390625 
Q 47.609375 24.75 44.3125 27.78125 
Q 41.015625 30.8125 33.5 32.328125 
L 27.484375 33.5 
Q 16.453125 35.6875 11.515625 40.375 
Q 6.59375 45.0625 6.59375 53.421875 
Q 6.59375 63.09375 13.40625 68.65625 
Q 20.21875 74.21875 32.171875 74.21875 
Q 37.3125 74.21875 42.625 73.28125 
Q 47.953125 72.359375 53.515625 70.515625 
z
" id="DejaVuSans-83"/>
      <path d="M 9.8125 72.90625 
L 55.90625 72.90625 
L 55.90625 64.59375 
L 19.671875 64.59375 
L 19.671875 43.015625 
L 54.390625 43.015625 
L 54.390625 34.71875 
L 19.671875 34.71875 
L 19.671875 8.296875 
L 56.78125 8.296875 
L 56.78125 0 
L 9.8125 0 
z
" id="DejaVuSans-69"/>
      <path d="M 9.421875 54.6875 
L 18.40625 54.6875 
L 18.40625 0 
L 9.421875 0 
z
M 9.421875 75.984375 
L 18.40625 75.984375 
L 18.40625 64.59375 
L 9.421875 64.59375 
z
" id="DejaVuSans-105"/>
     </defs>
     <g transform="translate(19.815625 154.176875)rotate(-90)scale(0.1 -0.1)">
      <use xlink:href="#DejaVuSans-83"/>
      <use x="63.476562" xlink:href="#DejaVuSans-69"/>
      <use x="126.660156" xlink:href="#DejaVuSans-83"/>
      <use x="190.136719" xlink:href="#DejaVuSans-105"/>
     </g>
    </g>
   </g>
   <g id="line2d_15">
    <path clip-path="url(#p10c379af72)" d="M 81.9 185.778722 
L 81.9 56.362732 
" style="fill:none;stroke:#3d3d3d;stroke-linecap:square;stroke-width:1.5;"/>
   </g>
   <g id="line2d_16">
    <path clip-path="url(#p10c379af72)" d="M 81.9 130.747881 
L 81.9 93.489317 
" style="fill:none;stroke:#3d3d3d;stroke-linecap:square;stroke-width:4.5;"/>
   </g>
   <g id="line2d_17">
    <path clip-path="url(#p10c379af72)" d="M 137.7 219.326094 
L 137.7 64.614259 
" style="fill:none;stroke:#3d3d3d;stroke-linecap:square;stroke-width:1.5;"/>
   </g>
   <g id="line2d_18">
    <path clip-path="url(#p10c379af72)" d="M 137.7 148.866674 
L 137.7 100.886362 
" style="fill:none;stroke:#3d3d3d;stroke-linecap:square;stroke-width:4.5;"/>
   </g>
   <g id="line2d_19">
    <path clip-path="url(#p10c379af72)" d="M 193.5 192.463154 
L 193.5 50.248937 
" style="fill:none;stroke:#3d3d3d;stroke-linecap:square;stroke-width:1.5;"/>
   </g>
   <g id="line2d_20">
    <path clip-path="url(#p10c379af72)" d="M 193.5 130.054716 
L 193.5 88.207508 
" style="fill:none;stroke:#3d3d3d;stroke-linecap:square;stroke-width:4.5;"/>
   </g>
   <g id="line2d_21">
    <path clip-path="url(#p10c379af72)" d="M 249.3 189.394884 
L 249.3 48.423143 
" style="fill:none;stroke:#3d3d3d;stroke-linecap:square;stroke-width:1.5;"/>
   </g>
   <g id="line2d_22">
    <path clip-path="url(#p10c379af72)" d="M 249.3 131.380813 
L 249.3 91.998112 
" style="fill:none;stroke:#3d3d3d;stroke-linecap:square;stroke-width:4.5;"/>
   </g>
   <g id="line2d_23">
    <path clip-path="url(#p10c379af72)" d="M 305.1 179.599164 
L 305.1 50.251762 
" style="fill:none;stroke:#3d3d3d;stroke-linecap:square;stroke-width:1.5;"/>
   </g>
   <g id="line2d_24">
    <path clip-path="url(#p10c379af72)" d="M 305.1 128.306877 
L 305.1 93.115099 
" style="fill:none;stroke:#3d3d3d;stroke-linecap:square;stroke-width:4.5;"/>
   </g>
   <g id="line2d_25">
    <path clip-path="url(#p10c379af72)" d="M 360.9 181.888788 
L 360.9 60.385857 
" style="fill:none;stroke:#3d3d3d;stroke-linecap:square;stroke-width:1.5;"/>
   </g>
   <g id="line2d_26">
    <path clip-path="url(#p10c379af72)" d="M 360.9 128.124725 
L 360.9 91.235956 
" style="fill:none;stroke:#3d3d3d;stroke-linecap:square;stroke-width:4.5;"/>
   </g>
   <g id="patch_3">
    <path d="M 54 252 
L 54 34.56 
" style="fill:none;stroke:#000000;stroke-linecap:square;stroke-linejoin:miter;stroke-width:0.8;"/>
   </g>
   <g id="patch_4">
    <path d="M 388.8 252 
L 388.8 34.56 
" style="fill:none;stroke:#000000;stroke-linecap:square;stroke-linejoin:miter;stroke-width:0.8;"/>
   </g>
   <g id="patch_5">
    <path d="M 54 252 
L 388.8 252 
" style="fill:none;stroke:#000000;stroke-linecap:square;stroke-linejoin:miter;stroke-width:0.8;"/>
   </g>
   <g id="patch_6">
    <path d="M 54 34.56 
L 388.8 34.56 
" style="fill:none;stroke:#000000;stroke-linecap:square;stroke-linejoin:miter;stroke-width:0.8;"/>
   </g>
   <g id="PathCollection_1">
    <defs>
     <path d="M 0 1.5 
C 0.397805 1.5 0.77937 1.341951 1.06066 1.06066 
C 1.341951 0.77937 1.5 0.397805 1.5 0 
C 1.5 -0.397805 1.341951 -0.77937 1.06066 -1.06066 
C 0.77937 -1.341951 0.397805 -1.5 0 -1.5 
C -0.397805 -1.5 -0.77937 -1.341951 -1.06066 -1.06066 
C -1.341951 -0.77937 -1.5 -0.397805 -1.5 0 
C -1.5 0.397805 -1.341951 0.77937 -1.06066 1.06066 
C -0.77937 1.341951 -0.397805 1.5 0 1.5 
z
" id="m9624b431d6" style="stroke:#3d3d3d;"/>
    </defs>
    <g clip-path="url(#p10c379af72)">
     <use style="fill:#ffffff;stroke:#3d3d3d;" x="81.9" xlink:href="#m9624b431d6" y="109.543303"/>
    </g>
   </g>
   <g id="PathCollection_2">
    <g clip-path="url(#p10c379af72)">
     <use style="fill:#ffffff;stroke:#3d3d3d;" x="137.7" xlink:href="#m9624b431d6" y="121.513792"/>
    </g>
   </g>
   <g id="PathCollection_3">
    <g clip-path="url(#p10c379af72)">
     <use style="fill:#ffffff;stroke:#3d3d3d;" x="193.5" xlink:href="#m9624b431d6" y="107.352909"/>
    </g>
   </g>
   <g id="PathCollection_4">
    <g clip-path="url(#p10c379af72)">
     <use style="fill:#ffffff;stroke:#3d3d3d;" x="249.3" xlink:href="#m9624b431d6" y="110.028424"/>
    </g>
   </g>
   <g id="PathCollection_5">
    <g clip-path="url(#p10c379af72)">
     <use style="fill:#ffffff;stroke:#3d3d3d;" x="305.1" xlink:href="#m9624b431d6" y="108.822433"/>
    </g>
   </g>
   <g id="PathCollection_6">
    <g clip-path="url(#p10c379af72)">
     <use style="fill:#ffffff;stroke:#3d3d3d;" x="360.9" xlink:href="#m9624b431d6" y="107.115489"/>
    </g>
   </g>
  </g>
 </g>
 <defs>
  <clipPath id="p10c379af72">
   <rect height="217.44" width="334.8" x="54" y="34.56"/>
  </clipPath>
 </defs>
</svg>
